<svg width="124" height="124" viewBox="0 0 124 124" fill="none" xmlns="http://www.w3.org/2000/svg">
<path d="M15.5 93V32.0333C15.5 26.2467 15.5 23.3533 16.6263 21.142C17.6183 19.1942 19.1942 17.6183 21.142 16.6263C23.3533 15.5 26.2467 15.5 32.0333 15.5H91.9667C97.7533 15.5 100.647 15.5 102.858 16.6263C104.802 17.617 106.383 19.1977 107.374 21.142C108.5 23.3482 108.5 26.2415 108.5 32.0178V91.9822C108.5 94.488 108.5 96.4513 108.407 98.0478M15.5 93C15.5 98.1047 15.5672 100.781 16.6263 102.853C17.6183 104.801 19.1942 106.382 21.142 107.374C23.3482 108.5 26.2415 108.5 32.0178 108.5H91.9873C97.7637 108.5 100.652 108.5 102.858 107.374C104.801 106.382 106.382 104.801 107.374 102.853C108.009 101.602 108.288 100.135 108.407 98.0478M15.5 93L40.1347 64.2578L40.1398 64.2527C42.3253 61.7055 43.4207 60.4293 44.7175 59.9643C45.8572 59.561 47.1023 59.5702 48.236 59.9902C49.5277 60.4707 50.6127 61.7623 52.762 64.3457L66.5622 80.9048C68.5565 83.3022 69.5588 84.5008 70.7782 84.9865C71.8517 85.4089 73.0358 85.4598 74.1417 85.1312C75.4023 84.7592 76.5183 83.6483 78.7348 81.4318L81.3027 78.864C83.5605 76.601 84.692 75.4747 85.9733 75.1027C87.097 74.7771 88.298 74.8446 89.3782 75.2938C90.6078 75.8053 91.605 77.0505 93.6045 79.5408L108.407 98.0478M108.407 98.0478L108.5 98.1667M77.5 46.5C76.1297 46.5 74.8156 45.9557 73.8466 44.9867C72.8777 44.0178 72.3333 42.7036 72.3333 41.3333C72.3333 39.963 72.8777 38.6489 73.8466 37.6799C74.8156 36.711 76.1297 36.1667 77.5 36.1667C78.8703 36.1667 80.1844 36.711 81.1534 37.6799C82.1223 38.6489 82.6667 39.963 82.6667 41.3333C82.6667 42.7036 82.1223 44.0178 81.1534 44.9867C80.1844 45.9557 78.8703 46.5 77.5 46.5Z" stroke="#D6D6DA" stroke-width="6" stroke-linecap="round" stroke-linejoin="round"/>
</svg>
