<svg width="163" height="269" viewBox="0 0 163 269" fill="none" xmlns="http://www.w3.org/2000/svg">
<g clip-path="url(#clip0_917_35042)">
<rect width="163" height="269" rx="12" fill="white"/>
<path d="M130.304 191.886C128.632 191.454 126.935 191.116 125.237 190.796C124.365 190.632 123.921 190.349 123.739 189.322C123.331 187.007 122.823 184.688 122.071 182.466C120.718 178.479 119.164 174.56 117.667 170.622C117.3 169.669 116.725 168.813 115.557 168.81C114.401 168.806 113.837 169.647 113.403 170.585C113.248 170.924 113.118 171.27 112.981 171.616C110.938 176.886 109.448 182.324 108.324 187.859C108.091 189.016 107.665 189.392 106.474 189.236C103.905 188.897 101.321 188.614 98.7338 188.499C97.4919 188.443 97.0656 188.019 96.8395 186.832C96.0016 182.451 95.0674 178.085 94.111 173.726C93.8477 172.524 93.4362 171.344 92.9951 170.194C92.6948 169.409 92.0979 168.832 91.186 168.813C90.2518 168.795 89.6994 169.39 89.3806 170.176C88.9616 171.207 88.5798 172.256 88.261 173.324C86.9486 177.724 85.9032 182.19 85.0431 186.694C84.7947 187.989 84.2535 188.533 82.9671 188.44C81.4286 188.328 79.8864 188.276 78.3442 188.194C75.1597 188.026 74.0587 188.905 73.6249 192.054C73.4655 193.219 73.3877 194.398 73.3098 195.575C72.6314 205.55 72.991 215.536 73.0095 225.518C73.0095 226.322 73.117 227.126 73.1764 227.93C73.269 229.181 73.7658 230.081 74.915 230.777C76.3127 231.622 77.3915 232.947 77.6695 234.593C78.4332 239.126 76.4869 243.44 72.446 244.724C71.2523 245.104 70.7815 245.919 70.8964 247.128C70.9594 247.806 71.0225 248.487 71.0855 249.164C71.5118 255.722 72.2755 262.247 73.0503 268.772C73.3209 271.046 73.6435 271.377 75.9864 271.321C79.0708 271.251 82.1737 271.251 85.2322 270.912C98.3298 269.468 111.487 269.379 124.629 268.902C127.391 268.802 128.317 267.972 128.221 265.18C128.054 260.289 127.858 255.402 127.598 250.515C127.387 246.574 127.339 246.577 123.598 245.405C120.988 244.586 119.064 241.512 119.324 238.575C119.598 235.508 121.578 233.45 124.651 233.174C126.037 233.048 126.879 232.408 127.009 231.038C127.691 223.97 129.785 217.192 131.216 210.28C132.106 205.974 133.341 201.738 133.989 197.38C134.494 193.993 133.604 192.731 130.297 191.879L130.304 191.886Z" fill="#D6D6DA"/>
<path d="M94.8818 231.276C94.6075 227.655 96.335 225.377 98.7299 223.75C104.024 220.155 109.336 221.227 114.667 223.709C115.038 223.881 115.394 223.419 115.119 223.114C114.682 222.623 114.081 222.332 113.514 222.046C109.336 219.939 104.973 220.01 100.769 221.662C97.4695 222.958 94.8225 225.262 94.0922 229.039C93.7771 230.666 93.8549 232.356 95.4305 233.383C97.0394 234.433 98.8522 234.325 100.317 233.219C104.357 230.163 108.654 230.327 113.136 231.827C113.422 231.924 113.711 232.088 114.096 231.898C114.341 231.775 114.337 231.422 114.085 231.317C108.706 229.11 103.698 229.553 98.6298 233.134C99.0191 230.804 101.551 228.41 101.125 227.889C100.736 227.413 99.3898 228.894 98.133 231.239C97.7697 231.917 97.8921 233.562 96.5204 232.94C95.0709 232.285 96.0496 231.031 96.5464 230.242C96.9282 229.635 97.3656 228.987 97.7957 228.466C98.2517 227.912 99.5232 226.735 99.2193 226.453C98.9153 226.17 97.6326 227.111 94.8892 231.276H94.8818Z" fill="white"/>
<path d="M113.733 208.564C116.565 208.583 121.581 203.919 121.833 201.027C121.885 200.45 121.87 199.859 121.192 199.654C120.532 199.457 120.124 199.84 119.928 200.432C119.55 201.559 118.979 202.561 118.237 203.495C116.925 205.151 115.398 206.707 113.203 206.42C110.901 206.119 109.989 204.157 109.551 202.028C109.425 201.414 109.092 200.964 108.41 201.098C107.798 201.217 107.79 201.768 107.768 202.282C107.638 205.181 110.83 208.549 113.733 208.568V208.564Z" fill="white"/>
<path d="M94.2111 207.693C97.2177 207.883 100.209 203.655 100.562 201.117C100.625 200.659 100.421 200.26 99.9573 200.074C99.4754 199.881 99.0861 200.123 98.8266 200.48C98.5782 200.823 98.4262 201.239 98.2668 201.638C97.2214 204.284 95.568 205.877 93.9516 205.583C91.5197 205.144 91.06 203.201 90.8264 201.143C90.7597 200.558 90.6262 199.966 89.8922 200.007C89.2286 200.045 89.0321 200.588 88.9395 201.184C88.4687 204.102 91.3195 207.63 94.2111 207.69V207.693Z" fill="white"/>
<path d="M101.403 215.592C99.6384 215.551 98.5262 216.701 98.5596 218.443C98.5818 219.73 99.0971 220.802 100.498 220.981C102.144 221.193 105.118 218.662 104.862 217.144C104.495 214.944 102.404 216.187 101.403 215.588V215.592Z" fill="#FF95C9"/>
<path d="M102.73 208.951C101.607 209.089 100.172 208.661 100.017 210.433C99.9313 211.434 101.47 213.28 102.297 213.314C103.071 213.343 105.121 210.995 105.01 210.09C104.825 208.613 103.653 208.981 102.73 208.951Z" fill="#FF95C9"/>
<path fill-rule="evenodd" clip-rule="evenodd" d="M81.5 154.5C92.5457 154.5 101.5 145.546 101.5 134.5C101.5 123.454 92.5457 114.5 81.5 114.5C70.4543 114.5 61.5 123.454 61.5 134.5C61.5 145.546 70.4543 154.5 81.5 154.5ZM80.1667 133.167V123.833H82.8333V133.167H92.1667V135.833H82.8333V145.167H80.1667V135.833H70.8333V133.167H80.1667Z" fill="#E5E5EA"/>
</g>
<rect x="1" y="1" width="161" height="267" rx="11" stroke="#F2F2F7" stroke-width="2"/>
<defs>
<clipPath id="clip0_917_35042">
<rect width="163" height="269" rx="12" fill="white"/>
</clipPath>
</defs>
</svg>
