<svg width="87" height="139" viewBox="0 0 87 139" fill="none" xmlns="http://www.w3.org/2000/svg">
<path d="M80.9592 31.2741C78.6814 30.6889 76.3682 30.2299 74.055 29.7961C72.8681 29.5742 72.262 29.1908 72.0145 27.7986C71.459 24.6611 70.767 21.5186 69.7418 18.5072C67.8983 13.1049 65.7821 7.79331 63.7416 2.45654C63.2416 1.16523 62.4587 0.00506088 60.8678 1.66767e-05C59.292 -0.00502752 58.5243 1.13496 57.9334 2.4061C57.7213 2.86512 57.5445 3.33423 57.3576 3.80334C54.5747 10.9459 52.5444 18.3155 51.014 25.8162C50.6958 27.385 50.115 27.8945 48.4938 27.6826C44.9937 27.2236 41.4734 26.8402 37.948 26.6838C36.2561 26.6082 35.6753 26.0331 35.3672 24.424C34.2257 18.487 32.953 12.5702 31.6499 6.66341C31.2913 5.03413 30.7307 3.43512 30.1297 1.87646C29.7206 0.812133 28.9074 0.0302819 27.665 0.00506088C26.3922 -0.0201601 25.6397 0.786912 25.2053 1.85124C24.6346 3.24848 24.1144 4.67095 23.68 6.11863C21.8921 12.0809 20.4678 18.1339 19.2961 24.2374C18.9577 25.9928 18.2203 26.7292 16.4677 26.6031C14.3717 26.4518 12.2706 26.3812 10.1696 26.2702C5.83109 26.0432 4.33105 27.2337 3.74013 31.5011C3.52295 33.0799 3.41689 34.6789 3.31083 36.2729C2.38656 49.7913 2.87647 63.3249 2.90172 76.8535C2.90172 77.943 3.04819 79.0326 3.129 80.1221C3.25527 81.817 3.93205 83.0377 5.49775 83.9809C7.40184 85.126 8.87157 86.9217 9.25037 89.1512C10.2908 95.2951 7.63921 101.141 2.13403 102.882C0.507726 103.396 -0.133703 104.501 0.022866 106.14C0.108727 107.058 0.194587 107.981 0.280448 108.899C0.86127 117.787 1.9017 126.63 2.95728 135.472C3.32598 138.554 3.76538 139.003 6.95738 138.927C11.1595 138.832 15.3869 138.832 19.5536 138.373C37.3975 136.415 55.3222 136.294 73.2267 135.649C76.9894 135.512 78.2521 134.388 78.1208 130.604C77.8935 123.976 77.6258 117.353 77.2722 110.73C76.9844 105.389 76.9187 105.394 71.8226 103.805C68.267 102.695 65.6457 98.5284 65.9992 94.5485C66.373 90.3921 69.07 87.6027 73.257 87.2294C75.1459 87.0579 76.2924 86.1903 76.4692 84.334C77.3985 74.7551 80.2521 65.5696 82.2017 56.2025C83.4138 50.3664 85.0957 44.6261 85.9795 38.7193C86.6664 34.1291 85.4543 32.4191 80.9491 31.264L80.9592 31.2741Z" fill="#33141B"/>
<path d="M32.7003 84.6568C32.3265 79.7488 34.6801 76.6618 37.9428 74.4575C45.1551 69.5848 52.3927 71.0375 59.6555 74.402C60.1605 74.634 60.6454 74.0085 60.2717 73.5949C59.6757 72.9291 58.8575 72.5356 58.0847 72.1472C52.3927 69.2922 46.4481 69.388 40.7207 71.6277C36.2256 73.383 32.6195 76.5054 31.6245 81.6253C31.1952 83.8296 31.3012 86.1197 33.4478 87.5119C35.6397 88.9343 38.1095 88.788 40.1045 87.2899C45.6097 83.1486 51.4634 83.3706 57.5696 85.4034C57.9585 85.5345 58.3524 85.7565 58.8777 85.4992C59.211 85.3328 59.206 84.8536 58.8625 84.7123C51.5341 81.7211 44.7107 82.3214 37.8065 87.1739C38.3368 84.0162 41.7864 80.7728 41.2055 80.0666C40.6752 79.4209 38.8418 81.4285 37.1297 84.6064C36.6347 85.5244 36.8014 87.754 34.9327 86.9116C32.9579 86.0238 34.2912 84.3239 34.968 83.2545C35.4882 82.4323 36.0842 81.5546 36.6701 80.8485C37.2913 80.0969 39.0237 78.5029 38.6095 78.1195C38.1954 77.7362 36.4478 79.0124 32.7104 84.6568H32.7003Z" fill="white"/>
<path d="M58.3829 53.8771C62.2415 53.9023 69.0751 47.5819 69.4185 43.6626C69.4892 42.8807 69.469 42.0787 68.5447 41.8013C67.6457 41.5339 67.0902 42.0535 66.8225 42.8555C66.3073 44.3839 65.5295 45.7408 64.5194 47.0069C62.7315 49.2516 60.6506 51.3601 57.6606 50.9716C54.5242 50.5631 53.2817 47.9048 52.6858 45.0195C52.514 44.1872 52.0595 43.5768 51.1302 43.7584C50.2968 43.9199 50.2867 44.6664 50.2564 45.3625C50.0796 49.2919 54.4282 53.8569 58.3829 53.8822V53.8771Z" fill="#FED44B"/>
<path d="M31.7863 52.6963C35.8823 52.9536 39.9582 47.2234 40.438 43.7832C40.5239 43.1628 40.2461 42.6231 39.6148 42.3709C38.9582 42.1086 38.4279 42.4364 38.0743 42.9207C37.7359 43.3847 37.5289 43.9497 37.3117 44.4894C35.8874 48.0759 33.6348 50.2348 31.4327 49.8363C28.1195 49.2411 27.4933 46.608 27.1751 43.8185C27.0842 43.0266 26.9023 42.2246 25.9023 42.2801C24.9982 42.3305 24.7306 43.067 24.6043 43.874C23.9629 47.8287 27.8468 52.6106 31.7863 52.6913V52.6963Z" fill="#FED44B"/>
<path d="M41.5844 63.4006C39.1803 63.3451 37.6651 64.9037 37.7105 67.2644C37.7408 69.0097 38.4429 70.4624 40.352 70.7046C42.5945 70.9921 46.6451 67.562 46.2966 65.504C45.7966 62.5229 42.948 64.2076 41.5844 63.3955V63.4006Z" fill="#FFC1C4"/>
<path d="M43.3926 54.4015C41.8622 54.5881 39.9076 54.008 39.6955 56.4091C39.5794 57.766 41.6754 60.2679 42.8017 60.3133C43.8572 60.3537 46.6502 57.1708 46.4987 55.945C46.2462 53.9425 44.6502 54.4418 43.3926 54.4015Z" fill="#FFC1C4"/>
</svg>
