<svg width="44" height="12" viewBox="0 0 44 12" fill="none" xmlns="http://www.w3.org/2000/svg">
<path fill-rule="evenodd" clip-rule="evenodd" d="M9.42163 11.192V3.824H11.9656V10.664L9.42163 11.192ZM12.3616 2.108L10.6936 3.716L9.02563 2.108L10.6936 0.5L12.3616 2.108ZM31.5956 11.1922L34.0916 10.6642V5.98419L35.7836 5.81619V3.41619L34.0916 3.58419V0.992188H31.5956V3.81219L29.9036 3.96819V6.36819L31.5956 6.21219V11.1922ZM40.9851 6.20055L43.4091 5.91255C43.3371 4.52055 41.9451 3.56055 39.8691 3.56055C38.2611 3.56055 36.6171 4.24455 36.6171 5.73255C36.6171 6.92055 37.3491 7.42455 38.7651 7.88055L39.7731 8.20455C39.9388 8.25979 40.1108 8.3111 40.275 8.3601C40.753 8.50269 41.1651 8.62565 41.1651 8.76855C41.1651 8.91255 40.5531 9.08055 39.9891 9.08055C39.4611 9.08055 38.6931 8.92455 38.6691 8.42055L36.2571 8.76855C36.4011 10.3285 38.1051 11.2045 39.8811 11.2045C42.2451 11.2045 43.6611 10.2685 43.6611 8.81655C43.6611 7.68855 42.5931 7.20855 41.2371 6.77655L39.9171 6.36855C39.8651 6.35229 39.8124 6.33647 39.7601 6.32079C39.427 6.22077 39.1131 6.12653 39.1131 5.96055C39.1131 5.76855 39.5691 5.68455 39.9651 5.68455C40.3731 5.68455 40.9131 5.79255 40.9851 6.20055ZM29.0483 10.6883L26.5523 11.1923V10.2683C26.1683 10.9643 25.5563 11.2523 24.6683 11.2523C22.7363 11.2523 21.1643 9.86027 21.1643 7.40027C21.1643 4.92827 22.7363 3.57227 24.6683 3.57227C25.4123 3.57227 26.0603 3.86027 26.5523 4.38827V3.82427H29.0483V10.6883ZM25.1003 9.12827C25.8803 9.12827 26.5523 8.40827 26.5523 7.40027C26.5523 6.36827 25.8803 5.69627 25.1003 5.69627C24.3203 5.69627 23.6603 6.36827 23.6603 7.40027C23.6603 8.40827 24.3203 9.12827 25.1003 9.12827ZM18.0827 6.64427L20.5907 6.39227C20.2066 4.55627 18.7307 3.57227 16.8707 3.57227C14.6987 3.57227 13.0667 4.92827 13.0667 7.40027C13.0667 9.86027 14.6987 11.2523 16.8707 11.2523C18.7667 11.2523 20.2426 10.2443 20.6026 8.36027H17.9986C17.7706 8.87627 17.3747 9.12827 16.8707 9.12827C16.1027 9.12827 15.5627 8.40827 15.5627 7.40027C15.5627 6.36827 16.1027 5.69627 16.8707 5.69627C17.4467 5.69627 17.8787 6.04427 18.0827 6.64427ZM3.12005 11.1922L5.70005 10.6642V3.23619H8.52005V0.992188H0.300049V3.23619H3.12005V11.1922Z" fill="url(#paint0_linear_974_1899)"/>
<defs>
<linearGradient id="paint0_linear_974_1899" x1="23.5875" y1="3.41332" x2="25.243" y2="14.7607" gradientUnits="userSpaceOnUse">
<stop stop-color="#F683BB"/>
<stop offset="1" stop-color="#FE6565"/>
</linearGradient>
</defs>
</svg>
