<svg width="20" height="32" viewBox="0 0 20 32" fill="none" xmlns="http://www.w3.org/2000/svg">
<path id="Vector" d="M18.7931 7.20316C18.2644 7.06839 17.7274 6.96266 17.1904 6.86275C16.9149 6.81163 16.7742 6.72333 16.7168 6.40268C16.5878 5.68004 16.4272 4.95624 16.1892 4.26264C15.7613 3.01836 15.27 1.79498 14.7964 0.5658C14.6803 0.268379 14.4986 0.00116564 14.1293 3.84104e-06C13.7635 -0.00115796 13.5853 0.261409 13.4481 0.554182C13.3989 0.659906 13.3578 0.767953 13.3145 0.876C12.6685 2.52111 12.1972 4.2185 11.8419 5.94609C11.7681 6.30741 11.6332 6.42475 11.2569 6.37596C10.4444 6.27023 9.62725 6.18194 8.80891 6.14592C8.41615 6.12849 8.28132 5.99605 8.20981 5.62543C7.94484 4.258 7.6494 2.89521 7.34692 1.53474C7.26368 1.15948 7.13354 0.791189 6.99402 0.432193C6.89906 0.187053 6.7103 0.00697463 6.42189 0.00116564C6.12644 -0.00464335 5.95175 0.181244 5.85093 0.426384C5.71844 0.748202 5.59769 1.07583 5.49686 1.40927C5.08183 2.78251 4.75121 4.17667 4.47921 5.58245C4.40066 5.98675 4.22949 6.15638 3.82266 6.12733C3.33611 6.09248 2.84839 6.07621 2.36067 6.05065C1.35358 5.99837 1.00537 6.27256 0.868199 7.25544C0.817786 7.61908 0.793165 7.98737 0.768544 8.3545C0.553994 11.4681 0.667717 14.5852 0.67358 17.7012C0.67358 17.9521 0.707579 18.2031 0.726338 18.454C0.755648 18.8444 0.91275 19.1255 1.2762 19.3428C1.71819 19.6065 2.05936 20.0201 2.14729 20.5336C2.38881 21.9487 1.7733 23.2952 0.495374 23.6961C0.117859 23.8146 -0.0310367 24.069 0.00530791 24.4466C0.0252388 24.658 0.0451697 24.8706 0.0651006 25.0821C0.199927 27.1292 0.441443 29.1658 0.686476 31.2024C0.772062 31.9123 0.874061 32.0157 1.61502 31.9983C2.59046 31.9762 3.57177 31.9762 4.539 31.8705C8.68112 31.4197 12.842 31.3918 16.9982 31.2431C17.8716 31.2117 18.1647 30.9526 18.1342 30.0813C18.0815 28.5547 18.0193 27.0293 17.9373 25.5038C17.8704 24.2735 17.8552 24.2746 16.6722 23.9087C15.8469 23.6531 15.2384 22.6934 15.3205 21.7768C15.4072 20.8194 16.0333 20.177 17.0052 20.091C17.4437 20.0515 17.7098 19.8517 17.7508 19.4241C17.9666 17.2179 18.629 15.1022 19.0815 12.9448C19.3629 11.6006 19.7533 10.2784 19.9585 8.91797C20.1179 7.86073 19.8366 7.46688 18.7908 7.20083L18.7931 7.20316Z" fill="#F683BB"/>
</svg>
