<svg width="62" height="100" viewBox="0 0 62 100" fill="none" xmlns="http://www.w3.org/2000/svg">
<path d="M55.9991 69.922V70.922V71.922C58.3845 71.922 60.3183 73.8557 60.3183 76.2411V94.6809C60.3183 97.0663 58.3845 99 55.9991 99H35.6714C34.7251 97.4088 32.9878 96.3404 30.9991 96.3404C29.0105 96.3404 27.2731 97.4088 26.3268 99H5.99909C3.61368 99 1.67993 97.0663 1.67993 94.6809V76.2411C1.67993 73.8557 3.61368 71.922 5.99909 71.922V70.922V69.922C3.61368 69.922 1.67993 67.9882 1.67993 65.6028V5.31915C1.67993 2.93375 3.61368 1 5.99909 1H26.3268C27.2731 2.59119 29.0105 3.65957 30.9991 3.65957C32.9878 3.65957 34.7251 2.59119 35.6714 1H55.9991C58.3845 1 60.3183 2.93375 60.3183 5.31915V65.6028C60.3183 67.9882 58.3845 69.922 55.9991 69.922Z" fill="#F683BB" fill-opacity="0.3" stroke="#F683BB" stroke-width="2"/>
</svg>
