<svg width="62" height="100" viewBox="0 0 62 100" fill="none" xmlns="http://www.w3.org/2000/svg">
<path d="M1.57031 6.79727L7.38969 1H54.7342L60.4399 6.68395V59.5768L55.3946 64.6028H55.2571C54.6621 64.6028 54.1435 64.9422 53.8894 65.4402C53.6352 64.9421 53.1165 64.6028 52.5217 64.6028H50.6981C50.1031 64.6028 49.5845 64.9422 49.3304 65.4402C49.0762 64.9421 48.5574 64.6028 47.9627 64.6028H46.1391C45.544 64.6028 45.0253 64.9423 44.7713 65.4403C44.5172 64.9423 43.9985 64.6028 43.4035 64.6028H41.5799C40.9851 64.6028 40.4663 64.9421 40.2122 65.4402C39.9581 64.9422 39.4394 64.6028 38.8444 64.6028H37.0208C36.4261 64.6028 35.9073 64.9421 35.6531 65.4402C35.399 64.9422 34.8804 64.6028 34.2854 64.6028H32.4618C31.8668 64.6028 31.3482 64.9422 31.0941 65.4401C30.84 64.9422 30.3214 64.6028 29.7264 64.6028H27.9028C27.3078 64.6028 26.7891 64.9422 26.535 65.4402C26.2809 64.9421 25.7621 64.6028 25.1673 64.6028H23.3437C22.7487 64.6028 22.2301 64.9422 21.976 65.4402C21.7218 64.9421 21.2031 64.6028 20.6083 64.6028H18.7847C18.1896 64.6028 17.671 64.9423 17.4169 65.4403C17.1628 64.9423 16.6442 64.6028 16.0491 64.6028H14.2255C13.6307 64.6028 13.112 64.9421 12.8578 65.4402C12.6037 64.9422 12.0851 64.6028 11.4901 64.6028H9.66647C9.07171 64.6028 8.55294 64.9421 8.29878 65.4402C8.04469 64.9422 7.52605 64.6028 6.93105 64.6028H6.72922L1.57031 59.4635V6.79727ZM52.5217 67.6667C53.1165 67.6667 53.6352 67.3274 53.8894 66.8293C54.1435 67.3273 54.6621 67.6667 55.2571 67.6667H55.2681L60.4399 72.8187V93.2648L54.6829 99H7.44131L1.57031 93.1513V72.9321L6.85576 67.6667H6.93105C7.52606 67.6667 8.04469 67.3273 8.29878 66.8293C8.55294 67.3274 9.0717 67.6667 9.66647 67.6667H11.4901C12.0851 67.6667 12.6037 67.3273 12.8578 66.8293C13.112 67.3274 13.6307 67.6667 14.2255 67.6667H16.0491C16.6442 67.6667 17.1628 67.3272 17.4169 66.8292C17.671 67.3272 18.1896 67.6667 18.7847 67.6667H20.6083C21.2031 67.6667 21.7219 67.3274 21.976 66.8293C22.2301 67.3273 22.7487 67.6667 23.3437 67.6667H25.1673C25.7621 67.6667 26.2809 67.3274 26.535 66.8293C26.7891 67.3273 27.3078 67.6667 27.9028 67.6667H29.7264C30.3214 67.6667 30.84 67.3273 31.0941 66.8294C31.3482 67.3273 31.8668 67.6667 32.4618 67.6667H34.2854C34.8804 67.6667 35.399 67.3273 35.6531 66.8293C35.9073 67.3274 36.4261 67.6667 37.0208 67.6667H38.8444C39.4394 67.6667 39.9581 67.3273 40.2122 66.8293C40.4663 67.3274 40.9851 67.6667 41.5799 67.6667H43.4035C43.9985 67.6667 44.5172 67.3272 44.7713 66.8292C45.0253 67.3272 45.544 67.6667 46.1391 67.6667H47.9627C48.5574 67.6667 49.0762 67.3274 49.3304 66.8293C49.5845 67.3273 50.1031 67.6667 50.6981 67.6667H52.5217Z" fill="#F683BB" fill-opacity="0.3" stroke="#F683BB" stroke-width="2"/>
</svg>
