<svg width="62" height="100" viewBox="0 0 62 100" fill="none" xmlns="http://www.w3.org/2000/svg">
<path d="M1.57007 6.79727L7.38945 1H54.7339L60.4396 6.68395V59.5768L55.3944 64.6028H55.2569C54.6619 64.6028 54.1432 64.9422 53.8891 65.4402C53.635 64.9421 53.1162 64.6028 52.5215 64.6028H50.6978C50.1028 64.6028 49.5842 64.9422 49.3301 65.4402C49.076 64.9421 48.5572 64.6028 47.9624 64.6028H46.1388C45.5438 64.6028 45.0251 64.9423 44.771 65.4403C44.5169 64.9423 43.9983 64.6028 43.4032 64.6028H41.5796C40.9848 64.6028 40.4661 64.9421 40.2119 65.4402C39.9578 64.9422 39.4392 64.6028 38.8442 64.6028H37.0206C36.4258 64.6028 35.907 64.9421 35.6529 65.4402C35.3988 64.9422 34.8802 64.6028 34.2852 64.6028H32.4615C31.8666 64.6028 31.3479 64.9422 31.0938 65.4401C30.8397 64.9422 30.3211 64.6028 29.7261 64.6028H27.9025C27.3075 64.6028 26.7889 64.9422 26.5348 65.4402C26.2806 64.9421 25.7619 64.6028 25.1671 64.6028H23.3435C22.7485 64.6028 22.2299 64.9422 21.9758 65.4402C21.7216 64.9421 21.2028 64.6028 20.6081 64.6028H18.7845C18.1894 64.6028 17.6707 64.9423 17.4167 65.4403C17.1626 64.9423 16.6439 64.6028 16.0489 64.6028H14.2253C13.6305 64.6028 13.1117 64.9421 12.8576 65.4402C12.6035 64.9422 12.0848 64.6028 11.4898 64.6028H9.66623C9.07146 64.6028 8.5527 64.9421 8.29853 65.4402C8.04444 64.9422 7.52581 64.6028 6.93081 64.6028H6.72897L1.57007 59.4635V6.79727ZM52.5215 67.6667C53.1162 67.6667 53.635 67.3274 53.8891 66.8293C54.1432 67.3273 54.6619 67.6667 55.2569 67.6667H55.2679L60.4396 72.8187V93.2648L54.6826 99H7.44107L1.57007 93.1513V72.9321L6.85551 67.6667H6.93081C7.52582 67.6667 8.04445 67.3273 8.29853 66.8293C8.55269 67.3274 9.07145 67.6667 9.66623 67.6667H11.4898C12.0848 67.6667 12.6035 67.3273 12.8576 66.8293C13.1117 67.3274 13.6305 67.6667 14.2253 67.6667H16.0489C16.6439 67.6667 17.1626 67.3272 17.4167 66.8292C17.6707 67.3272 18.1894 67.6667 18.7845 67.6667H20.6081C21.2028 67.6667 21.7216 67.3274 21.9758 66.8293C22.2299 67.3273 22.7485 67.6667 23.3435 67.6667H25.1671C25.7619 67.6667 26.2806 67.3274 26.5348 66.8293C26.7889 67.3273 27.3075 67.6667 27.9025 67.6667H29.7261C30.3211 67.6667 30.8397 67.3273 31.0938 66.8294C31.3479 67.3273 31.8666 67.6667 32.4615 67.6667H34.2852C34.8802 67.6667 35.3988 67.3273 35.6529 66.8293C35.907 67.3274 36.4258 67.6667 37.0206 67.6667H38.8442C39.4392 67.6667 39.9578 67.3273 40.2119 66.8293C40.4661 67.3274 40.9848 67.6667 41.5796 67.6667H43.4032C43.9983 67.6667 44.517 67.3272 44.771 66.8292C45.0251 67.3272 45.5437 67.6667 46.1388 67.6667H47.9624C48.5572 67.6667 49.076 67.3274 49.3301 66.8293C49.5842 67.3273 50.1028 67.6667 50.6978 67.6667H52.5215Z" fill="#E5E5EA" stroke="#C7C7CC" stroke-width="2"/>
</svg>
