<svg width="62" height="100" viewBox="0 0 62 100" fill="none" xmlns="http://www.w3.org/2000/svg">
<path d="M56.1005 69.922V70.922V71.922C58.5007 71.922 60.4399 73.8593 60.4399 76.2411V94.6809C60.4399 97.0627 58.5007 99 56.1005 99H35.6918C34.742 97.4077 32.9984 96.3404 31.0049 96.3404C29.0114 96.3404 27.2679 97.4077 26.3181 99H5.90942C3.5092 99 1.56995 97.0627 1.56995 94.6809V76.2411C1.56995 73.8593 3.50919 71.922 5.90942 71.922V70.922V69.922C3.5092 69.922 1.56995 67.9846 1.56995 65.6028V5.31915C1.56995 2.93734 3.5092 1 5.90942 1H26.3181C27.2679 2.59226 29.0114 3.65957 31.0049 3.65957C32.9984 3.65957 34.742 2.59226 35.6918 1H56.1005C58.5007 1 60.4399 2.93734 60.4399 5.31915V65.6028C60.4399 67.9846 58.5007 69.922 56.1005 69.922Z" fill="#E5E5EA" stroke="#C7C7CC" stroke-width="2"/>
</svg>
