<svg width="62" height="100" viewBox="0 0 62 100" fill="none" xmlns="http://www.w3.org/2000/svg">
<path d="M48.091 2.77305C49.4254 2.77305 50.5937 2.06276 51.236 1H53.3817C53.8358 4.67308 56.7584 7.58059 60.4396 8.0314V91.9686C56.7584 92.4194 53.8358 95.3269 53.3817 99H51.236C50.5937 97.9372 49.4254 97.227 48.091 97.227C46.7566 97.227 45.5884 97.9372 44.9461 99H42.6929C42.0506 97.9372 40.8823 97.227 39.5479 97.227C38.2136 97.227 37.0453 97.9372 36.403 99H34.1498C33.5075 97.9372 32.3392 97.227 31.0049 97.227C29.6705 97.227 28.5022 97.9372 27.8599 99H25.6067C24.9644 97.9372 23.7962 97.227 22.4618 97.227C21.1274 97.227 19.9591 97.9372 19.3168 99H17.0636C16.4213 97.9372 15.2531 97.227 13.9187 97.227C12.5843 97.227 11.416 97.9372 10.7737 99H8.62796C8.17395 95.3269 5.25133 92.4194 1.57007 91.9686V8.0314C5.25133 7.58059 8.17395 4.67308 8.62796 1H10.7737C11.416 2.06275 12.5843 2.77305 13.9187 2.77305C15.2531 2.77305 16.4213 2.06275 17.0636 1H19.3168C19.9591 2.06275 21.1274 2.77305 22.4618 2.77305C23.7962 2.77305 24.9644 2.06275 25.6067 1H27.8599C28.5022 2.06275 29.6704 2.77305 31.0049 2.77305C32.3393 2.77305 33.5075 2.06275 34.1498 1H36.403C37.0453 2.06275 38.2136 2.77305 39.5479 2.77305C40.8823 2.77305 42.0506 2.06275 42.6929 1H44.9461C45.5884 2.06275 46.7566 2.77305 48.091 2.77305Z" fill="#E5E5EA" stroke="#C7C7CC" stroke-width="2"/>
</svg>
