<svg width="62" height="100" viewBox="0 0 62 100" fill="none" xmlns="http://www.w3.org/2000/svg">
<path d="M48.0913 2.77305C49.4257 2.77305 50.5939 2.06276 51.2362 1H53.382C53.836 4.67308 56.7586 7.58059 60.4399 8.0314V91.9686C56.7586 92.4194 53.836 95.3269 53.382 99H51.2362C50.5939 97.9372 49.4257 97.227 48.0913 97.227C46.7569 97.227 45.5887 97.9372 44.9464 99H42.6931C42.0508 97.9372 40.8826 97.227 39.5482 97.227C38.2138 97.227 37.0456 97.9372 36.4033 99H34.15C33.5077 97.9372 32.3395 97.227 31.0051 97.227C29.6707 97.227 28.5025 97.9372 27.8602 99H25.6069C24.9646 97.9372 23.7964 97.227 22.462 97.227C21.1276 97.227 19.9594 97.9372 19.3171 99H17.0638C16.4215 97.9372 15.2533 97.227 13.9189 97.227C12.5845 97.227 11.4163 97.9372 10.774 99H8.62821C8.1742 95.3269 5.25158 92.4194 1.57031 91.9686V8.0314C5.25158 7.58059 8.1742 4.67308 8.62821 1H10.774C11.4163 2.06275 12.5845 2.77305 13.9189 2.77305C15.2533 2.77305 16.4215 2.06275 17.0638 1H19.3171C19.9594 2.06275 21.1276 2.77305 22.462 2.77305C23.7964 2.77305 24.9646 2.06275 25.6069 1H27.8602C28.5025 2.06275 29.6707 2.77305 31.0051 2.77305C32.3395 2.77305 33.5077 2.06275 34.15 1H36.4033C37.0456 2.06275 38.2138 2.77305 39.5482 2.77305C40.8826 2.77305 42.0508 2.06275 42.6931 1H44.9464C45.5887 2.06275 46.7569 2.77305 48.0913 2.77305Z" fill="#F683BB" fill-opacity="0.3" stroke="#F683BB" stroke-width="2"/>
</svg>
