<svg width="24" height="23" viewBox="0 0 24 23" fill="none" xmlns="http://www.w3.org/2000/svg">
<path d="M11.9032 0C5.31392 0 0 4.25109 0 9.41197C0 12.7619 2.21059 15.6951 5.52648 17.3701L4.40418 21.5618C4.38302 21.6246 4.37976 21.692 4.39478 21.7566C4.4098 21.8211 4.44249 21.8803 4.4892 21.9273C4.55731 21.9874 4.64495 22.0206 4.73577 22.0208C4.81107 22.0148 4.88251 21.985 4.93982 21.9358L9.76911 18.6795C10.482 18.7779 11.2006 18.8289 11.9202 18.8325C18.5009 18.8325 23.8234 14.5814 23.8234 9.41197C23.8234 4.24259 18.4839 0 11.9032 0Z" fill="black"/>
</svg>
