<svg width="32" height="32" viewBox="0 0 32 32" fill="none" xmlns="http://www.w3.org/2000/svg">
<circle cx="16" cy="16" r="15.2" fill="white" stroke="#E5E5EA" stroke-width="1.6"/>
<path d="M22.4167 11.1875H19.9375L19.3469 9.53233C19.3061 9.41907 19.2313 9.32117 19.1328 9.252C19.0342 9.18283 18.9167 9.14577 18.7964 9.14587H13.2036C12.9576 9.14587 12.737 9.30082 12.6549 9.53233L12.0625 11.1875H9.58333C8.7776 11.1875 8.125 11.8401 8.125 12.6459V20.9584C8.125 21.7641 8.7776 22.4167 9.58333 22.4167H22.4167C23.2224 22.4167 23.875 21.7641 23.875 20.9584V12.6459C23.875 11.8401 23.2224 11.1875 22.4167 11.1875ZM22.5625 20.9584C22.5625 21.0386 22.4969 21.1042 22.4167 21.1042H9.58333C9.50312 21.1042 9.4375 21.0386 9.4375 20.9584V12.6459C9.4375 12.5657 9.50312 12.5 9.58333 12.5H12.9867L13.2984 11.6287L13.7159 10.4584H18.2823L18.6997 11.6287L19.0115 12.5H22.4167C22.4969 12.5 22.5625 12.5657 22.5625 12.6459V20.9584ZM16 13.6667C14.3885 13.6667 13.0833 14.9719 13.0833 16.5834C13.0833 18.1948 14.3885 19.5 16 19.5C17.6115 19.5 18.9167 18.1948 18.9167 16.5834C18.9167 14.9719 17.6115 13.6667 16 13.6667ZM16 18.3334C15.0339 18.3334 14.25 17.5495 14.25 16.5834C14.25 15.6172 15.0339 14.8334 16 14.8334C16.9661 14.8334 17.75 15.6172 17.75 16.5834C17.75 17.5495 16.9661 18.3334 16 18.3334Z" fill="#8E8E93"/>
</svg>
