<svg width="14" height="20" viewBox="0 0 14 20" fill="none" xmlns="http://www.w3.org/2000/svg">
<path fill-rule="evenodd" clip-rule="evenodd" d="M11.6667 14.2666C12.2855 14.2666 12.879 14.4913 13.3166 14.8914C13.7542 15.2915 14 15.8341 14 16.3999V17.4666C14 18.0324 13.7542 18.575 13.3166 18.9751C12.879 19.3751 12.2855 19.5999 11.6667 19.5999H2.33333C1.71449 19.5999 1.121 19.3751 0.683417 18.9751C0.245833 18.575 0 18.0324 0 17.4666V16.3999C0 15.8341 0.245833 15.2915 0.683417 14.8914C1.121 14.4913 1.71449 14.2666 2.33333 14.2666H11.6667ZM11.6667 0.399902C12.2855 0.399902 12.879 0.624663 13.3166 1.02474C13.7542 1.42482 14 1.96744 14 2.53324V9.9999C14 10.5657 13.7542 11.1083 13.3166 11.5084C12.879 11.9085 12.2855 12.1332 11.6667 12.1332H2.33333C1.71449 12.1332 1.121 11.9085 0.683417 11.5084C0.245833 11.1083 0 10.5657 0 9.9999V2.53324C0 1.96744 0.245833 1.42482 0.683417 1.02474C1.121 0.624663 1.71449 0.399902 2.33333 0.399902H11.6667Z" fill="#212121"/>
</svg>
