<svg width="24" height="24" viewBox="0 0 24 24" fill="none" xmlns="http://www.w3.org/2000/svg">
<path d="M12.1111 4.22222L12.1111 4.2219C12.1112 3.91355 11.9948 3.61656 11.7851 3.39046C11.5795 3.16871 11.2991 3.03123 10.9983 3.0042L10.8722 3L4.22222 3L4.2219 3C3.91355 2.9999 3.61656 3.11636 3.39046 3.32603C3.16871 3.53166 3.03123 3.81204 3.0042 4.11282L3 4.23887L3 8.66667L3 8.66699C2.9999 8.97534 3.11636 9.27233 3.32602 9.49843C3.53166 9.72018 3.81205 9.85766 4.11283 9.88469L4.23889 9.88889L10.8889 9.88889L10.8892 9.88889C11.1976 9.88899 11.4946 9.77253 11.7206 9.56286L12.4006 10.2961L11.7207 9.56286C11.9424 9.35723 12.0799 9.07684 12.1069 8.77606L12.1111 8.65L12.1111 4.22222ZM7.66667 15.3333C7.66667 15.0092 7.5379 14.6983 7.30868 14.4691C7.07947 14.2399 6.7686 14.1111 6.44444 14.1111L4.22222 14.1111C3.89807 14.1111 3.58719 14.2399 3.35798 14.4691C3.12877 14.6983 3 15.0092 3 15.3333L3 19.7778C3 20.1019 3.12877 20.4128 3.35798 20.642C3.58719 20.8712 3.89807 21 4.22222 21L6.44444 21C6.7686 21 7.07947 20.8712 7.30869 20.642C7.5379 20.4128 7.66667 20.1019 7.66667 19.7778L7.66667 15.3333ZM21 15.3333C21 15.0092 20.8712 14.6983 20.642 14.4691C20.4128 14.2399 20.1019 14.1111 19.7778 14.1111L13.1111 14.1111C12.787 14.1111 12.4761 14.2399 12.2469 14.4691C12.0177 14.6983 11.8889 15.0092 11.8889 15.3333L11.8889 19.7778C11.8889 20.1019 12.0177 20.4128 12.2469 20.642C12.4761 20.8712 12.787 21 13.1111 21L19.7778 21C20.1019 21 20.4128 20.8712 20.642 20.642C20.8712 20.4128 21 20.1019 21 19.7778L21 15.3333ZM21 4.22222C21 3.89807 20.8712 3.58719 20.642 3.35798C20.4128 3.12877 20.1019 3 19.7778 3L17.5556 3C17.2314 3 16.9205 3.12877 16.6913 3.35798C16.4621 3.58719 16.3333 3.89807 16.3333 4.22222L16.3333 8.66667C16.3333 8.99082 16.4621 9.3017 16.6913 9.53091C16.9205 9.76012 17.2314 9.88889 17.5556 9.88889L19.7778 9.88889C20.1019 9.88889 20.4128 9.76012 20.642 9.53091C20.8712 9.3017 21 8.99082 21 8.66667L21 4.22222Z" stroke="#212121" stroke-width="2"/>
</svg>
