<svg width="20" height="20" viewBox="0 0 20 20" fill="none" xmlns="http://www.w3.org/2000/svg">
<path fill-rule="evenodd" clip-rule="evenodd" d="M6.66667 11.0666C7.25604 11.0666 7.82127 11.2913 8.23802 11.6914C8.65476 12.0915 8.88889 12.6341 8.88889 13.1999V17.4666C8.88889 18.0324 8.65476 18.575 8.23802 18.9751C7.82127 19.3751 7.25604 19.5999 6.66667 19.5999H2.22222C1.63285 19.5999 1.06762 19.3751 0.650874 18.9751C0.234126 18.575 0 18.0324 0 17.4666V13.1999C0 12.6341 0.234126 12.0915 0.650874 11.6914C1.06762 11.2913 1.63285 11.0666 2.22222 11.0666H6.66667ZM17.7778 11.0666C18.3671 11.0666 18.9324 11.2913 19.3491 11.6914C19.7659 12.0915 20 12.6341 20 13.1999V17.4666C20 18.0324 19.7659 18.575 19.3491 18.9751C18.9324 19.3751 18.3671 19.5999 17.7778 19.5999H13.3333C12.744 19.5999 12.1787 19.3751 11.762 18.9751C11.3452 18.575 11.1111 18.0324 11.1111 17.4666V13.1999C11.1111 12.6341 11.3452 12.0915 11.762 11.6914C12.1787 11.2913 12.744 11.0666 13.3333 11.0666H17.7778ZM6.66667 0.399902C7.25604 0.399902 7.82127 0.624663 8.23802 1.02474C8.65476 1.42482 8.88889 1.96744 8.88889 2.53324V6.7999C8.88889 7.3657 8.65476 7.90832 8.23802 8.3084C7.82127 8.70847 7.25604 8.93324 6.66667 8.93324H2.22222C1.63285 8.93324 1.06762 8.70847 0.650874 8.3084C0.234126 7.90832 0 7.3657 0 6.7999V2.53324C0 1.96744 0.234126 1.42482 0.650874 1.02474C1.06762 0.624663 1.63285 0.399902 2.22222 0.399902H6.66667ZM17.7778 0.399902C18.3671 0.399902 18.9324 0.624663 19.3491 1.02474C19.7659 1.42482 20 1.96744 20 2.53324V6.7999C20 7.3657 19.7659 7.90832 19.3491 8.3084C18.9324 8.70847 18.3671 8.93324 17.7778 8.93324H13.3333C12.744 8.93324 12.1787 8.70847 11.762 8.3084C11.3452 7.90832 11.1111 7.3657 11.1111 6.7999V2.53324C11.1111 1.96744 11.3452 1.42482 11.762 1.02474C12.1787 0.624663 12.744 0.399902 13.3333 0.399902H17.7778Z" fill="#212121"/>
</svg>
