<svg width="24" height="24" viewBox="0 0 24 24" fill="none" xmlns="http://www.w3.org/2000/svg">
<path d="M19.3072 21.2313H13.9252V16.7813V15.9813H13.1252H10.5002H9.70019V16.7813V21.2313H4.69316V14.3977V13.5977H3.89316H2.87598C2.49046 13.5977 2.17598 13.2832 2.17598 12.8977C2.17598 12.7128 2.25003 12.534 2.38208 12.4018C2.38214 12.4018 2.38219 12.4017 2.38225 12.4017C2.38226 12.4017 2.38227 12.4016 2.38229 12.4016L12.0002 2.79073L21.6181 12.4016C21.6182 12.4017 21.6182 12.4017 21.6182 12.4018C21.8918 12.6755 21.8918 13.1189 21.6193 13.3925L21.6181 13.3937C21.4889 13.524 21.3122 13.5977 21.1244 13.5977H20.1072H19.3072V14.3977V21.2313Z" fill="white" stroke="#8E8E93" stroke-width="1.6"/>
</svg>
