<svg width="24" height="24" viewBox="0 0 24 24" fill="none" xmlns="http://www.w3.org/2000/svg">
<g id="Property 1=person, Property 2=Outlined">
<g id="icon">
<mask id="path-1-inside-1_746_26523" fill="white">
<path fill-rule="evenodd" clip-rule="evenodd" d="M7.1665 7.5C7.1665 5.01375 9.18025 3 11.6665 3C14.1528 3 16.1665 5.01375 16.1665 7.5C16.1665 9.98625 14.1528 12 11.6665 12C9.18025 12 7.1665 9.98625 7.1665 7.5ZM2.6665 17.625C2.6665 14.6325 8.66275 13.125 11.6665 13.125C14.6703 13.125 20.6665 14.6325 20.6665 17.625V21H2.6665V17.625Z"/>
</mask>
<path fill-rule="evenodd" clip-rule="evenodd" d="M7.1665 7.5C7.1665 5.01375 9.18025 3 11.6665 3C14.1528 3 16.1665 5.01375 16.1665 7.5C16.1665 9.98625 14.1528 12 11.6665 12C9.18025 12 7.1665 9.98625 7.1665 7.5ZM2.6665 17.625C2.6665 14.6325 8.66275 13.125 11.6665 13.125C14.6703 13.125 20.6665 14.6325 20.6665 17.625V21H2.6665V17.625Z" fill="white"/>
<path d="M20.6665 21V22.6H22.2665V21H20.6665ZM2.6665 21H1.0665V22.6H2.6665V21ZM11.6665 1.4C8.2966 1.4 5.5665 4.13009 5.5665 7.5H8.7665C8.7665 5.89741 10.0639 4.6 11.6665 4.6V1.4ZM17.7665 7.5C17.7665 4.13009 15.0364 1.4 11.6665 1.4V4.6C13.2691 4.6 14.5665 5.89741 14.5665 7.5H17.7665ZM11.6665 13.6C15.0364 13.6 17.7665 10.8699 17.7665 7.5H14.5665C14.5665 9.10259 13.2691 10.4 11.6665 10.4V13.6ZM5.5665 7.5C5.5665 10.8699 8.2966 13.6 11.6665 13.6V10.4C10.0639 10.4 8.7665 9.10259 8.7665 7.5H5.5665ZM11.6665 11.525C9.96462 11.525 7.51236 11.9394 5.4451 12.7676C4.41019 13.1821 3.37115 13.7398 2.56519 14.4837C1.74835 15.2375 1.0665 16.2892 1.0665 17.625H4.2665C4.2665 17.4645 4.33419 17.2056 4.73552 16.8352C5.14771 16.4547 5.79547 16.0744 6.63509 15.7381C8.3169 15.0643 10.3646 14.725 11.6665 14.725V11.525ZM22.2665 17.625C22.2665 16.2892 21.5847 15.2375 20.7678 14.4837C19.9619 13.7398 18.9228 13.1821 17.8879 12.7676C15.8206 11.9394 13.3684 11.525 11.6665 11.525V14.725C12.9684 14.725 15.0161 15.0643 16.6979 15.7381C17.5375 16.0744 18.1853 16.4547 18.5975 16.8352C18.9988 17.2056 19.0665 17.4645 19.0665 17.625H22.2665ZM22.2665 21V17.625H19.0665V21H22.2665ZM2.6665 22.6H20.6665V19.4H2.6665V22.6ZM1.0665 17.625V21H4.2665V17.625H1.0665Z" fill="#8E8E93" mask="url(#path-1-inside-1_746_26523)"/>
</g>
</g>
</svg>
