<svg width="120" height="120" viewBox="0 0 120 120" fill="none" xmlns="http://www.w3.org/2000/svg">
<circle cx="60" cy="60" r="60" fill="#F2F2F7"/>
<mask id="mask0_752_31151" style="mask-type:alpha" maskUnits="userSpaceOnUse" x="0" y="0" width="120" height="120">
<circle cx="60" cy="60" r="60" fill="#D9D9D9"/>
</mask>
<g mask="url(#mask0_752_31151)">
<path fill-rule="evenodd" clip-rule="evenodd" d="M59.9999 26.2397C58.9342 26.2397 57.8847 26.3095 56.8559 26.4446C52.5284 23.1952 45.8778 18.5781 44.0041 19.3759C41.9204 20.2632 41.3176 30.1901 41.1442 35.4482C37.9794 39.5026 36.0936 44.6041 36.0936 50.146C36.0936 63.3491 46.7968 74.0523 59.9999 74.0523C73.203 74.0523 83.9062 63.3491 83.9062 50.146C83.9062 45.1897 82.3979 40.5857 79.8154 36.7679C79.9822 31.8356 80.0471 21.7552 77.9165 19.7247C76.1208 18.0151 69.3848 22.8799 64.6668 26.695C63.1574 26.3963 61.5969 26.2397 59.9999 26.2397ZM15 104.693C15 89.2216 44.9812 81.4277 60 81.4277C75.0187 81.4277 105 89.2216 105 104.693V122.142H15V104.693Z" fill="#FF95C9"/>
</g>
</svg>
