<svg width="18" height="21" viewBox="0 0 18 21" fill="none" xmlns="http://www.w3.org/2000/svg">
<g id="Frame 26085772">
<path id="Vector" d="M12.0187 4.28226L13.4603 5.77575L12.3453 6.93091L9 3.46545L12.3453 0L13.4603 1.15515L12.0187 2.64863H14.0575C16.2349 2.64863 18 4.47714 18 6.73271V10H16.423V6.73271C16.423 5.37937 15.364 4.28226 14.0575 4.28226H12.0187Z" fill="black"/>
<path id="Vector_2" fill-rule="evenodd" clip-rule="evenodd" d="M14 8.5V19.9995C14 20.5517 13.5523 20.9995 13 20.9995L1.5 20.9995C0.94772 20.9995 0.5 20.5517 0.5 19.9995V8.50004C0.5 7.94774 0.94772 7.5 1.5 7.5L13 7.49996C13.5523 7.49996 14 7.9477 14 8.5ZM2.5 9.50004L12 9.5V18.9995L2.5 18.9995V9.50004Z" fill="black"/>
</g>
</svg>
