<svg width="24" height="24" viewBox="0 0 24 24" fill="none" xmlns="http://www.w3.org/2000/svg">
<path fill-rule="evenodd" clip-rule="evenodd" d="M7.55573 2.6851C8.64769 2.2328 9.81804 2 11 2C12.1819 2 13.3522 2.2328 14.4442 2.6851C15.5361 3.1374 16.5283 3.80035 17.3641 4.6361C18.1998 5.47185 18.8628 6.46402 19.3151 7.55598C19.7674 8.64793 20.0002 9.81828 20.0002 11.0002C20.0002 12.1821 19.7674 13.3525 19.3151 14.4444C18.9909 15.2271 18.5585 15.9585 18.0318 16.6178L21.7071 20.2931C22.0976 20.6836 22.0976 21.3168 21.7071 21.7073C21.3165 22.0978 20.6834 22.0978 20.2929 21.7073L16.6176 18.032C15.0303 19.3002 13.0512 20.0004 11 20.0004C8.61296 20.0004 6.32372 19.0522 4.63585 17.3643C2.94799 15.6764 1.99976 13.3872 1.99976 11.0002C1.99976 8.6132 2.94799 6.32397 4.63585 4.6361C5.4716 3.80035 6.46378 3.1374 7.55573 2.6851ZM11 4C10.0807 4 9.1704 4.18107 8.3211 4.53286C7.47179 4.88465 6.7001 5.40028 6.05007 6.05031C4.73728 7.36311 3.99976 9.14364 3.99976 11.0002C3.99976 12.8568 4.73728 14.6373 6.05007 15.9501C7.36286 17.2629 9.14339 18.0004 11 18.0004C12.8565 18.0004 14.6371 17.2629 15.9499 15.9501C16.5999 15.3001 17.1155 14.5284 17.4673 13.6791C17.8191 12.8298 18.0002 11.9195 18.0002 11.0002C18.0002 10.0809 17.8191 9.17065 17.4673 8.32134C17.1155 7.47204 16.5999 6.70034 15.9499 6.05031C15.2998 5.40028 14.5281 4.88465 13.6788 4.53286C12.8295 4.18107 11.9192 4 11 4Z" fill="#212121"/>
</svg>
