<svg width="24" height="24" viewBox="0 0 24 24" fill="none" xmlns="http://www.w3.org/2000/svg">
<g id="Property 1=Logo, Property 2=Outlined">
<path id="Subtract" d="M12.4879 3.93889H12.9718L13.1965 3.51028C13.4078 3.10707 13.8482 2.29521 14.3015 1.62347C14.4666 1.37895 14.6203 1.17274 14.7541 1.01716C14.8564 1.18949 14.9668 1.40745 15.0798 1.65623C15.3533 2.25818 15.6026 2.95118 15.7539 3.39632L15.9383 3.93889H16.5113H18.1018C18.1492 3.93889 18.2 3.97965 18.2 4.0453V11.9804C17.144 12.382 16.3986 13.409 16.3986 14.605C16.3986 15.8011 17.144 16.8281 18.2 17.2297V22.0936C18.2 22.1592 18.1492 22.2 18.1018 22.2H5.89819C5.85081 22.2 5.8 22.1592 5.8 22.0936V17.2294C6.85563 16.8276 7.6007 15.8008 7.6007 14.605C7.6007 13.4092 6.85563 12.3825 5.8 11.9807V4.0453C5.8 3.97965 5.85081 3.93889 5.89819 3.93889H7.26162H7.76234L7.98117 3.48852C8.14126 3.15905 8.5154 2.40826 8.90902 1.74904C9.05794 1.49963 9.2008 1.27838 9.3286 1.10339C9.4607 1.28337 9.60852 1.51136 9.76215 1.76725C10.1561 2.42343 10.5306 3.16549 10.6915 3.49233L10.9115 3.93889H11.4092H12.4879ZM14.5377 0.714117C14.5356 0.71246 14.5346 0.71151 14.5346 0.711448C14.5346 0.711386 14.5356 0.712216 14.5377 0.714117ZM9.59952 0.786563C9.6127 0.776295 9.61162 0.779231 9.59756 0.78812C9.59825 0.787566 9.5989 0.787047 9.59952 0.786563ZM9.05775 0.786982C9.04991 0.781995 9.04587 0.778733 9.04581 0.778349C9.04576 0.777965 9.04968 0.780459 9.05775 0.786982Z" fill="white" stroke="#8E8E93" stroke-width="1.6"/>
</g>
</svg>
