<svg width="32" height="32" viewBox="0 0 32 32" fill="none" xmlns="http://www.w3.org/2000/svg">
<path d="M22.25 3.5C19.7388 3.5 17.51 4.49125 16 6.195C14.49 4.49125 12.2613 3.5 9.75 3.5C7.56278 3.50265 5.46589 4.37269 3.91929 5.91929C2.37269 7.46589 1.50265 9.56278 1.5 11.75C1.5 20.7925 14.7262 28.0175 15.2887 28.3212C15.5073 28.439 15.7517 28.5006 16 28.5006C16.2483 28.5006 16.4927 28.439 16.7113 28.3212C17.2738 28.0175 30.5 20.7925 30.5 11.75C30.4974 9.56278 29.6273 7.46589 28.0807 5.91929C26.5341 4.37269 24.4372 3.50265 22.25 3.5ZM21.5637 21.295C19.8228 22.7723 17.9618 24.1019 16 25.27C14.0382 24.1019 12.1772 22.7723 10.4363 21.295C7.7275 18.9712 4.5 15.4275 4.5 11.75C4.5 10.3576 5.05312 9.02225 6.03769 8.03769C7.02226 7.05312 8.35761 6.5 9.75 6.5C11.975 6.5 13.8375 7.675 14.6112 9.5675C14.7239 9.84338 14.9161 10.0795 15.1634 10.2457C15.4108 10.4118 15.702 10.5006 16 10.5006C16.298 10.5006 16.5892 10.4118 16.8366 10.2457C17.0839 10.0795 17.2761 9.84338 17.3888 9.5675C18.1625 7.675 20.025 6.5 22.25 6.5C23.6424 6.5 24.9777 7.05312 25.9623 8.03769C26.9469 9.02225 27.5 10.3576 27.5 11.75C27.5 15.4275 24.2725 18.9712 21.5637 21.295Z" fill="white"/>
</svg>
